<?xml version="1.0" encoding="UTF-8" standalone="no"?>
<!-- Created with Inkscape (http://www.inkscape.org/) -->

<svg
   xmlns:dc="http://purl.org/dc/elements/1.1/"
   xmlns:cc="http://creativecommons.org/ns#"
   xmlns:rdf="http://www.w3.org/1999/02/22-rdf-syntax-ns#"
   xmlns:svg="http://www.w3.org/2000/svg"
   xmlns="http://www.w3.org/2000/svg"
   xmlns:xlink="http://www.w3.org/1999/xlink"
   xmlns:sodipodi="http://sodipodi.sourceforge.net/DTD/sodipodi-0.dtd"
   xmlns:inkscape="http://www.inkscape.org/namespaces/inkscape"
   version="1.1"
   id="svg1418"
   xml:space="preserve"
   width="800"
   height="800"
   viewBox="0 0 800 800"
   sodipodi:docname="dots-gradient-color-freesvg.org.svg"
   inkscape:version="0.92.4 (5da689c313, 2019-01-14)"><metadata
     id="metadata1424"><rdf:RDF><cc:Work
         rdf:about=""><dc:format>image/svg+xml</dc:format><dc:type
           rdf:resource="http://purl.org/dc/dcmitype/StillImage" /><dc:title></dc:title></cc:Work></rdf:RDF></metadata><defs
     id="defs1422"><linearGradient
       inkscape:collect="always"
       id="linearGradient1995"><stop
         style="stop-color:#222b00;stop-opacity:1;"
         offset="0"
         id="stop1991" /><stop
         style="stop-color:#222b00;stop-opacity:0;"
         offset="1"
         id="stop1993" /></linearGradient><clipPath
       clipPathUnits="userSpaceOnUse"
       id="clipPath1434"><path
         d="M 0,600 H 600 V 0 H 0 Z"
         id="path1432"
         inkscape:connector-curvature="0" /></clipPath><radialGradient
       inkscape:collect="always"
       xlink:href="#linearGradient1995"
       id="radialGradient2001"
       cx="300.01901"
       cy="299.98099"
       fx="300.01901"
       fy="299.98099"
       r="299.98099"
       gradientUnits="userSpaceOnUse" /></defs><sodipodi:namedview
     pagecolor="#ffffff"
     bordercolor="#666666"
     borderopacity="1"
     objecttolerance="10"
     gridtolerance="10"
     guidetolerance="10"
     inkscape:pageopacity="0"
     inkscape:pageshadow="2"
     inkscape:window-width="1920"
     inkscape:window-height="1018"
     id="namedview1420"
     showgrid="false"
     inkscape:zoom="0.87878947"
     inkscape:cx="477.9661"
     inkscape:cy="422.0339"
     inkscape:window-x="-8"
     inkscape:window-y="-8"
     inkscape:window-maximized="1"
     inkscape:current-layer="g1426" /><g
     id="g1426"
     inkscape:groupmode="layer"
     inkscape:label="dots-background-vector [Converted]"
     transform="matrix(1.3333333,0,0,-1.3333333,0,800)"><g
       id="g1428"
       style="fill:url(#radialGradient2001);fill-opacity:1"><g
         id="g1430"
         clip-path="url(#clipPath1434)"
         style="fill:url(#radialGradient2001);fill-opacity:1"><path
           d="m 0.038,153.091 c 5.51,-1.884 9.69,-5.822 11.203,-11.347 2.296,-8.467 -2.458,-17.851 -11.203,-23.706 z m 0,-48.983 C 12.028,105.341 22.743,99.601 25.464,89.625 28.681,77.805 19.32,65.008 4.385,61.234 2.926,60.867 1.474,60.595 0.038,60.413 Z m 0,-57.371 C 2.307,47.834 4.757,48.72 7.35,49.348 22.479,52.994 37.363,45.996 40.794,33.443 44.267,20.689 34.449,7.449 18.604,4.141 12.033,2.778 5.568,3.255 0.038,5.146 Z m 229.554,75.271 c -13.135,-3.797 -27.472,3.564 -31.938,16.326 -4.393,12.668 2.711,26.041 15.803,29.98 13.032,3.897 27.093,-3.265 31.535,-16.062 4.443,-12.887 -2.374,-26.455 -15.4,-30.244 m -109.894,91.965 c -13.064,-4.557 -26.685,0.861 -30.437,12.091 -3.684,11.09 3.631,24.151 16.371,29.161 12.731,5.004 26.287,-0.329 30.293,-11.87 4.026,-11.677 -3.217,-24.826 -16.227,-29.382 m 18.674,-54.787 c -13.429,-4.102 -27.558,2.216 -31.507,14.031 -3.889,11.703 3.633,24.738 16.765,29.205 13.09,4.437 27.03,-1.711 31.22,-13.768 4.192,-12.16 -3.13,-25.371 -16.478,-29.468 m -53.54,157.052 c -12.229,-5.822 -24.803,-2.377 -28.19,7.77 -3.347,10.056 3.473,23.478 15.343,29.916 11.929,6.437 24.652,2.949 28.357,-7.715 3.71,-10.754 -3.267,-24.131 -15.51,-29.971 m -16.286,47.776 c -11.791,-6.604 -23.826,-4.186 -27.064,5.492 -3.184,9.586 3.339,23.33 14.758,30.607 11.469,7.299 23.776,4.801 27.343,-5.455 3.567,-10.34 -3.216,-24.012 -15.037,-30.644 m 89.412,-262.282 c -13.759,-3.794 -28.385,3.368 -32.554,15.827 -4.101,12.324 3.594,25.468 17.096,29.517 13.412,3.99 27.709,-2.871 32.072,-15.439 4.378,-12.688 -2.985,-26.131 -16.614,-29.905 m -56.087,164.532 c -12.662,-5.129 -25.767,-0.676 -29.327,9.992 -3.509,10.557 3.576,23.74 15.89,29.422 12.336,5.679 25.492,1.236 29.341,-9.858 3.86,-11.197 -3.258,-24.404 -15.904,-29.556 M 178.527,41.389 c -14.046,-3.653 -29.153,4.256 -33.552,17.412 -4.321,13.023 3.502,26.433 17.325,30.199 13.693,3.711 28.311,-3.76 32.87,-16.895 4.573,-13.248 -2.772,-27.091 -16.643,-30.716 M 52.95,409.772 c -11.331,-7.449 -22.835,-6.106 -25.921,3.123 -3.029,9.145 3.187,23.277 14.131,31.457 11.009,8.224 22.873,6.783 26.298,-3.085 3.436,-9.956 -3.136,-23.994 -14.508,-31.495 M 164.829,-0.158 c -2.515,12.684 5.223,24.808 18.254,28.191 13.917,3.602 28.839,-4.402 33.604,-18.115 1.164,-3.379 1.612,-6.792 1.421,-10.076 z M 37.995,453.626 c -10.845,-8.376 -21.819,-8.125 -24.76,0.688 -2.902,8.742 2.999,23.325 13.464,32.469 10.521,9.209 21.934,8.856 25.235,-0.654 3.308,-9.588 -3.029,-24.063 -13.939,-32.503 M 250.749,61.291 c -13.12,-3.805 -27.647,4.012 -32.268,17.268 -4.579,13.162 2.47,26.75 15.603,30.56 13.018,3.75 27.113,-3.748 31.686,-16.91 4.565,-13.227 -2.06,-27.137 -15.021,-30.918 M 0.038,599.962 H 8.863 C 7.602,593.429 4.438,585.971 0.038,579.382 Z m 0,-95.283 c 1.686,7.558 6.304,16.233 12.78,22.825 10.019,10.249 20.994,11.004 24.165,1.853 C 40.17,520.119 34.076,505.113 23.664,495.674 13.293,486.33 2.866,485.477 0.043,493.91 l -0.005,0.018 z m 0,62.601 c 9.39,10.721 19.515,12.401 22.526,3.732 3.071,-8.893 -2.741,-24.489 -12.659,-34.96 -3.386,-3.549 -6.772,-6.114 -9.867,-7.628 z m 255.2,-567.438 c -6.763,3.064 -12.456,8.972 -15.124,16.607 -4.754,13.68 2.166,27.69 15.271,31.533 12.947,3.791 27.045,-3.931 31.727,-17.453 C 291.383,18.151 286.487,5.07 275.875,-0.158 Z M 0.038,362.079 c 9.738,5.291 19.153,3.377 21.853,-4.956 3.006,-9.367 -3.769,-22.584 -15.057,-29.605 -2.296,-1.428 -4.585,-2.509 -6.796,-3.251 z m 0,43.629 c 3.932,-0.342 6.998,-2.59 8.331,-6.714 2.289,-7.095 -1.351,-17.124 -8.331,-24.893 z M 89.66,-0.158 c 3.746,4.418 9.155,7.768 15.655,9.26 11.191,2.55 22.693,-1.366 29.639,-9.26 z M 82.929,81.479 C 68.525,77.691 53.892,84.5 50.367,96.5 c -3.443,11.828 5.112,24.633 19.021,28.779 13.822,4.108 28.105,-2.332 32.043,-14.504 C 105.4,98.439 97.205,85.254 82.929,81.479 m 18.295,-59.145 c -15.029,-3.502 -30.431,4.35 -34.205,17.225 -3.702,12.701 5.21,25.793 19.744,29.525 14.402,3.682 29.288,-3.631 33.482,-16.572 4.218,-13.09 -4.177,-26.717 -19.021,-30.178 M 0.038,310.005 c 2.605,3.218 5.874,6.127 9.622,8.372 11.427,6.834 23.304,4.422 26.457,-5.334 3.184,-9.854 -3.929,-22.844 -15.82,-29.053 -7.575,-3.953 -15.099,-4.397 -20.259,-1.807 z M 65.792,136.891 c -13.78,-4.233 -27.654,1.5 -30.946,12.705 -3.225,11.058 4.95,23.734 18.22,28.422 13.234,4.65 26.915,-0.842 30.639,-12.336 3.746,-11.645 -4.219,-24.561 -17.913,-28.791 M 34.565,237.863 c -12.517,-5.461 -24.954,-1.906 -27.847,7.918 -2.828,9.703 4.556,22.479 16.578,28.524 12.03,6.025 24.488,2.566 27.819,-7.711 3.359,-10.406 -4.056,-23.26 -16.55,-28.731 M 49.7,188.918 c -13.147,-4.795 -26.288,-0.141 -29.374,10.35 -3.016,10.336 4.772,22.994 17.41,28.326 12.639,5.297 25.709,0.808 29.218,-10.039 C 70.507,206.543 62.798,193.719 49.7,188.918 M 600.576,539.36 c -16.008,-1.576 -28.985,8.302 -29.377,22.96 -0.367,14.693 12.533,28.865 29.377,31.976 z m 0,-66.159 c -14.936,-2.033 -27.197,7.267 -27.588,21.311 -0.36,14.057 11.844,27.598 27.588,30.248 z m 0,-276.075 c -0.971,-0.681 -1.967,-1.279 -2.979,-1.784 -9.075,-4.479 -16.724,0.625 -17.012,11.463 -0.272,10.965 7.574,23.129 17.486,27.121 0.855,0.343 1.691,0.616 2.505,0.823 z m 0,-45.813 c -1.147,-1.08 -2.34,-2.032 -3.56,-2.823 -8.042,-5.189 -14.867,-1.039 -15.132,9.266 -0.279,10.433 6.741,22.68 15.585,27.308 1.071,0.563 2.109,0.994 3.107,1.296 z m 0,-42.98 c -1.303,-1.645 -2.683,-3.109 -4.107,-4.312 -7.055,-5.929 -13.098,-2.775 -13.348,7.047 -0.266,9.934 5.955,22.33 13.771,27.676 1.289,0.881 2.523,1.527 3.684,1.947 z m 0,302.711 c -0.113,-0.022 -0.226,-0.043 -0.341,-0.064 -13.778,-2.468 -25.199,6.137 -25.56,19.542 -0.346,13.485 11.185,26.561 25.901,28.991 z m 0,-165.186 c -0.781,-0.404 -1.575,-0.761 -2.378,-1.067 -10.147,-3.848 -18.674,2.195 -18.974,13.602 -0.31,11.537 8.439,23.753 19.475,27.171 0.635,0.196 1.261,0.359 1.877,0.491 z m 0,106.749 c -0.35,-0.095 -0.702,-0.183 -1.055,-0.263 -12.503,-2.821 -22.881,4.98 -23.241,17.677 -0.314,12.825 10.306,25.506 23.798,28.061 0.166,0.031 0.332,0.061 0.498,0.089 z m 0,-54.988 c -0.574,-0.217 -1.154,-0.411 -1.739,-0.582 -11.289,-3.293 -20.72,3.656 -21.05,15.674 -0.309,12.174 9.351,24.547 21.582,27.49 0.405,0.096 0.808,0.181 1.207,0.255 z m 0,-229.404 c -1.43,-2.438 -2.995,-4.644 -4.623,-6.438 -6.139,-6.709 -11.419,-4.578 -11.661,4.793 -0.248,9.475 5.208,22.1 12.07,28.194 1.505,1.342 2.923,2.278 4.214,2.827 z M 485.584,203.65 c -10.974,-3.828 -22.016,3.088 -24.604,15.506 -2.588,12.487 4.803,25.547 16.458,29.129 11.612,3.547 22.53,-3.558 24.425,-15.781 1.873,-12.137 -5.378,-25.02 -16.279,-28.854 M 363.313,162.715 c -11.972,-3.819 -25.05,3.568 -29.125,16.449 -4.051,12.885 2.719,26.34 15.073,30.086 12.285,3.717 25.16,-3.668 28.849,-16.471 3.661,-12.799 -2.915,-26.254 -14.797,-30.064 m 17.913,-59.289 c -11.45,-4.084 -24.157,3.193 -28.249,16.142 -4.075,12.961 2.325,26.52 14.189,30.395 11.776,3.83 24.177,-3.338 27.839,-16.092 3.655,-12.725 -2.454,-26.383 -13.779,-30.445 m -53.727,177.84 c -12.87,-3.815 -26.548,3.357 -30.58,16.117 -3.999,12.726 3.365,26.388 16.526,30.402 13.17,3.996 26.885,-3.351 30.603,-16.277 3.703,-12.942 -3.702,-26.426 -16.549,-30.242 m 17.914,-59.276 c -12.459,-3.726 -25.852,3.617 -29.9,16.428 -4.033,12.824 3.057,26.318 15.833,30.113 12.76,3.778 26.081,-3.672 29.785,-16.556 3.673,-12.864 -3.332,-26.254 -15.718,-29.985 m -35.814,118.533 c -13.232,-4.068 -27.151,2.791 -31.162,15.475 -3.976,12.668 3.626,26.639 17.109,31.049 13.529,4.412 27.596,-2.729 31.334,-15.734 3.725,-12.997 -4.032,-26.698 -17.281,-30.79 m -17.906,59.254 c -13.55,-4.492 -27.648,1.907 -31.629,14.512 -3.962,12.607 3.829,27.026 17.583,31.994 13.837,5.002 28.221,-1.781 31.998,-14.856 3.73,-13.056 -4.352,-27.109 -17.952,-31.65 M 399.138,44.133 c -10.867,-4.531 -23.16,2.504 -27.272,15.521 -4.106,13.028 1.888,26.85 13.205,31.034 11.21,4.117 23.104,-2.735 26.751,-15.418 3.623,-12.659 -1.952,-26.661 -12.684,-31.137 m -8.411,-44.291 c -3.868,12.978 1.651,26.956 12.258,31.556 10.601,4.579 21.932,-1.808 25.567,-14.425 1.629,-5.677 1.501,-11.729 -0.051,-17.131 z m 77.811,13.056 c -9.179,-5.396 -19.491,0.35 -22.834,12.694 -3.339,12.379 2.035,26.252 11.825,31.135 9.697,4.8 19.609,-0.832 22.342,-12.69 2.707,-11.805 -2.26,-25.795 -11.333,-31.139 m 1.355,-13.056 c 0.532,0.417 1.081,0.803 1.647,1.154 5.649,3.489 11.42,2.797 15.564,-1.154 z m -212.686,600.12 c -2.541,-9.199 -9.644,-17.866 -19.202,-22.478 -14.185,-6.802 -28.566,-2.554 -32.492,9.848 -1.235,3.933 -1.267,8.281 -0.281,12.63 z m 16.594,-140.955 c -13.817,-5.087 -28.061,0.731 -32.024,13.278 -3.939,12.539 3.991,27.545 17.971,33.243 14.097,5.755 28.766,-0.516 32.549,-13.657 3.753,-13.133 -4.601,-27.71 -18.496,-32.864 m -17.9,59.247 c -14.021,-5.871 -28.363,-0.761 -32.304,11.711 -3.923,12.469 4.099,28.185 18.251,34.789 14.313,6.674 29.225,1.082 33.013,-12.131 3.785,-13.197 -4.814,-28.433 -18.96,-34.369 M 133.334,398.283 c -12.395,-6.156 -25.307,-2.611 -29.032,8.039 -3.674,10.584 3.037,24.811 15.209,31.643 12.251,6.875 25.5,3.15 29.404,-8.102 3.905,-11.318 -3.138,-25.365 -15.581,-31.58 M 73.627,599.962 c -2.147,-3.18 -4.68,-6.166 -7.513,-8.755 -11.109,-10.113 -22.406,-10.889 -25.665,-1.571 -1,2.87 -1.133,6.439 -0.52,10.326 z M 98.749,497.555 c -11.821,-7.944 -23.964,-6.48 -27.437,3.472 -3.447,9.9 2.871,25.143 14.409,33.927 11.641,8.859 24.331,7.179 28.048,-3.539 3.71,-10.771 -3.137,-25.8 -15.02,-33.86 m 52.664,-151.153 c -12.639,-5.42 -25.895,-0.947 -29.749,10.077 -3.803,10.959 3.057,24.794 15.51,30.794 12.501,6.032 25.98,1.42 29.984,-10.117 3.998,-11.609 -3.08,-25.301 -15.745,-30.754 M 82.205,545.053 c -11.483,-9.001 -23.209,-8.62 -26.582,1.011 -3.317,9.567 2.754,25.427 13.915,35.327 11.297,9.968 23.662,9.416 27.295,-1.028 3.615,-10.514 -3.073,-26.218 -14.628,-35.31 M 189.278,237.721 c -12.989,-4.305 -26.856,1.802 -30.997,13.656 -4.092,11.758 2.986,25.113 15.853,29.809 12.87,4.685 26.715,-1.415 30.925,-13.543 4.221,-12.229 -2.826,-25.592 -15.781,-29.922 m -19.228,55.183 c -12.831,-4.793 -26.411,0.532 -30.401,11.965 -3.946,11.348 3.044,24.881 15.719,30.172 12.717,5.289 26.389,-0.107 30.502,-11.941 4.104,-11.911 -2.986,-25.379 -15.82,-30.196 M 454.5,68.797 c -9.976,-4.734 -20.922,1.637 -24.3,14.103 -3.372,12.502 2.558,26.069 13.12,30.381 10.464,4.268 21.084,-2.039 23.876,-14.131 C 469.961,87.115 464.357,73.484 454.5,68.797 M 115.787,448.66 c -12.124,-7.014 -24.667,-4.478 -28.256,5.819 -3.561,10.228 2.957,24.933 14.84,32.692 11.973,7.808 24.949,5.074 28.752,-5.9 3.805,-11.04 -3.144,-25.535 -15.336,-32.611 m 49.355,90.369 c -12.912,-7.44 -26.225,-4.629 -30.042,6.534 -3.789,11.123 3.229,27.041 16.025,35.332 12.939,8.382 26.907,5.246 30.826,-6.733 3.896,-12.006 -3.775,-27.601 -16.809,-35.133 m 36.494,-108.972 c -13.069,-5.643 -26.734,-0.97 -30.709,10.642 -3.948,11.584 3.228,26.232 16.247,32.541 13.134,6.338 27.187,1.385 31.191,-10.845 3.976,-12.258 -3.594,-26.625 -16.729,-32.338 m 18.668,-55.744 c -13.071,-4.973 -26.849,0.488 -30.918,12.335 -4.017,11.823 3.172,26.004 16.235,31.508 13.148,5.533 27.2,-0.164 31.24,-12.515 4.019,-12.383 -3.437,-26.332 -16.557,-31.328 m -37.056,110.648 c -13.012,-6.475 -26.517,-2.686 -30.422,8.704 -3.86,11.341 3.258,26.568 16.191,33.811 13.061,7.278 27.086,3.187 31.048,-8.908 3.934,-12.135 -3.695,-27.078 -16.817,-33.607 m -27.383,115.001 c -2.462,-2.915 -5.344,-5.54 -8.551,-7.685 -12.775,-8.526 -25.852,-6.783 -29.598,4.162 -0.38,1.118 -0.648,2.297 -0.811,3.523 z m 83.399,-282.284 c -13.019,-4.426 -26.883,1.701 -31.032,13.81 -4.106,12.065 3.064,25.867 16.12,30.733 13.105,4.849 27.114,-1.438 31.19,-13.918 4.071,-12.51 -3.241,-26.158 -16.278,-30.625 m 94.14,-317.836 c 2.467,3.379 5.788,6.023 9.776,7.512 8.774,3.265 18.192,0.008 24.148,-7.512 z m 5.318,20.812 c -11.868,-4.279 -25.42,3.346 -30.026,16.815 -4.579,13.424 1.72,27.402 13.879,31.422 12.029,3.961 25.106,-3.373 29.404,-16.536 4.285,-13.183 -1.542,-27.451 -13.257,-31.701 M 258.53,260.156 c -12.919,-4.06 -26.815,2.635 -31.049,15.014 -4.189,12.299 2.901,25.867 15.895,30.223 13.012,4.347 26.937,-2.426 31.043,-15.02 4.118,-12.662 -3.001,-26.148 -15.889,-30.217 M 318.184,81.98 c -12.231,-3.939 -25.939,3.661 -30.454,16.836 -4.483,13.143 2.104,26.782 14.57,30.62 12.367,3.789 25.73,-3.604 29.984,-16.631 4.241,-13.047 -2.001,-26.891 -14.1,-30.825 m -40.085,119.727 c -12.752,-3.84 -26.633,3.285 -30.955,15.912 -4.29,12.586 2.685,26.043 15.563,30.065 12.852,3.988 26.64,-3.137 30.803,-15.891 4.154,-12.781 -2.728,-26.238 -15.411,-30.086 m 19.88,-59.375 c -12.521,-3.803 -26.346,3.631 -30.766,16.539 -4.378,12.842 2.427,26.322 15.127,30.16 12.646,3.797 26.248,-3.529 30.455,-16.414 4.195,-12.91 -2.392,-26.49 -14.816,-30.285 m 132.252,364.697 c -15.302,-3.775 -29.944,4.299 -32.873,18.416 -2.954,14.218 7.408,29.491 23.37,33.696 16.104,4.241 31.188,-4.571 33.475,-19.227 2.236,-14.526 -8.559,-29.06 -23.972,-32.885 M 557.404,72.701 c -7.629,-5.785 -15.012,-1.793 -16.375,8.901 -1.365,10.785 4.414,23.734 12.771,28.953 8.293,5.179 15.389,1.097 16.028,-9.117 0.61,-10.106 -4.873,-22.973 -12.424,-28.737 m 4.423,-46.492 c -6.706,-6.584 -13.322,-3.553 -14.628,6.756 -1.306,10.406 3.745,23.631 11.167,29.59 7.356,5.92 13.652,2.82 14.268,-6.955 0.588,-9.668 -4.178,-22.825 -10.807,-29.391 M 547.988,171.57 c -9.545,-4.406 -18.545,1.344 -20.001,12.864 -1.485,11.625 5.77,24.287 16.098,28.259 10.263,3.934 19.048,-1.972 19.741,-13.17 0.66,-11.064 -6.364,-23.558 -15.838,-27.953 m -5.002,52.637 c -10.548,-3.855 -20.359,2.678 -21.898,14.654 -1.519,12.08 6.461,24.776 17.812,28.272 11.306,3.467 20.987,-3.315 21.711,-15.043 0.712,-11.606 -7.139,-24.051 -17.625,-27.883 m -5.233,54.934 c -11.575,-3.397 -22.239,3.838 -23.842,16.291 -1.578,12.574 7.177,25.435 19.582,28.576 12.37,3.117 22.992,-4.485 23.746,-16.799 0.739,-12.18 -7.959,-24.676 -19.486,-28.068 m 15.044,-158.024 c -8.568,-5.066 -16.766,-0.158 -18.172,10.938 -1.42,11.189 5.09,23.951 14.412,28.498 9.274,4.515 17.196,-0.5 17.855,-11.188 0.633,-10.57 -5.597,-23.215 -14.095,-28.248 m 1.492,-121.275 c 1.657,6.476 4.704,12.681 8.464,16.607 6.449,6.733 11.976,4.621 12.565,-4.728 0.213,-3.533 -0.245,-7.684 -1.212,-11.879 z m 34.997,0 c 1.583,4.965 3.714,9.754 6.07,13.342 2.027,3.097 3.824,4.911 5.22,5.453 V -0.158 Z m -68.685,459.646 c -14.856,-2.855 -28.234,5.937 -30.027,20.004 -1.794,14.208 9.386,28.463 25.135,31.47 15.832,2.992 29.468,-6.575 30.343,-20.921 0.859,-14.166 -10.559,-27.661 -25.451,-30.553 M 532.3,336.555 c -12.646,-3.065 -24.201,4.795 -25.859,17.771 -1.646,13.061 7.902,26.217 21.395,29.145 13.491,2.904 25.061,-5.436 25.866,-18.352 0.774,-12.803 -8.8,-25.476 -21.402,-28.564 M 514.328,525.38 c -15.996,-3.042 -30.35,6.063 -32.21,20.756 -1.882,14.834 10.149,29.928 27.071,33.273 17.082,3.307 31.779,-6.676 32.728,-21.811 0.896,-14.95 -11.485,-29.168 -27.589,-32.218 M 526.59,396.604 c -13.739,-2.877 -26.199,5.504 -27.922,19.011 -1.715,13.623 8.642,27.238 23.238,30.109 14.649,2.848 27.23,-6.137 28.063,-19.745 0.835,-13.463 -9.651,-26.475 -23.379,-29.375 m -5.406,203.358 c -4.016,-2.559 -8.569,-4.443 -13.428,-5.411 -9.885,-1.963 -19.146,0.257 -25.607,5.411 z M 440.249,125.545 c -10.735,-4.207 -22.279,2.648 -25.701,15.236 -3.408,12.639 3.057,25.996 14.352,29.905 11.22,3.863 22.514,-2.975 25.372,-15.321 2.813,-12.281 -3.401,-25.644 -14.023,-29.82 m -59.244,235.791 c -13.431,-3.68 -27.125,3.81 -30.682,16.932 -3.547,13.146 4.727,27.151 18.616,31.074 13.934,3.92 27.817,-3.965 30.905,-17.352 3.054,-13.328 -5.398,-26.949 -18.839,-30.654 m 15.145,-60.313 c -12.799,-3.562 -26.005,3.983 -29.532,16.973 -3.508,13.006 4.367,26.639 17.663,30.299 13.306,3.633 26.571,-4.182 29.584,-17.279 3.003,-13.071 -4.937,-26.42 -17.715,-29.993 m 14.93,-59.39 c -12.155,-3.612 -24.835,3.822 -28.318,16.681 -3.476,12.895 3.953,26.299 16.619,29.883 12.633,3.545 25.265,-4.084 28.237,-16.947 2.928,-12.787 -4.451,-26 -16.538,-29.617 m 14.684,-58.479 c -11.452,-3.824 -23.581,3.379 -27.029,16.108 -3.444,12.752 3.518,26.072 15.517,29.732 11.944,3.623 23.923,-3.676 26.821,-16.264 2.878,-12.531 -3.939,-25.755 -15.309,-29.576 m -75.776,301.633 c -14.574,-4.465 -29.151,2.506 -32.766,15.898 -3.633,13.426 5.353,28.628 20.316,33.653 15.096,5.037 30.139,-2.512 33.358,-16.48 3.182,-13.909 -6.249,-28.544 -20.908,-33.071 m -12.509,115.175 c 9.091,-1.669 16.356,-7.916 18.477,-17.138 3.265,-14.203 -6.64,-29.597 -21.848,-34.821 -15.079,-5.161 -30.035,1.319 -33.709,14.849 -3.647,13.563 5.613,29.618 21.064,35.474 1.988,0.753 3.977,1.295 5.939,1.636 z m 28.135,-177.378 c -14.022,-3.967 -28.169,3.323 -31.759,16.564 -3.586,13.292 5.068,27.819 19.508,32.197 14.54,4.372 29.004,-3.415 32.167,-17.089 3.117,-13.608 -5.854,-27.645 -19.916,-31.672 m 98.842,-103.131 c -12.726,-3.31 -25.227,4.457 -27.955,17.531 -2.712,13.123 5.9,26.6 19.308,29.877 13.419,3.284 25.966,-4.871 28.011,-17.968 2.017,-13.026 -6.654,-26.114 -19.364,-29.44 m -11.059,60.596 c -13.588,-3.291 -26.814,4.721 -29.598,18.119 -2.8,13.48 6.416,27.381 20.683,30.782 14.32,3.402 27.704,-5.109 29.828,-18.701 2.081,-13.495 -7.299,-26.894 -20.913,-30.2 m 21.782,-119.367 c -11.85,-3.496 -23.621,3.894 -26.277,16.627 -2.653,12.816 5.355,26.017 17.885,29.377 12.517,3.322 24.253,-4.358 26.211,-17.026 1.94,-12.564 -6.014,-25.476 -17.819,-28.978 m -31.718,339.28 c -2.101,-11.99 -12.174,-22.765 -25.376,-26.332 -16.147,-4.325 -31.447,3.538 -34.482,18.036 -0.566,2.736 -0.643,5.53 -0.284,8.296 z M 209.115,180.787 c -13.09,-3.978 -27.208,2.815 -31.508,15.1 -4.239,12.215 2.864,25.515 15.876,29.763 12.984,4.213 26.95,-2.482 31.284,-14.964 4.327,-12.538 -2.633,-25.93 -15.652,-29.899 m 232.887,261.766 c -14.455,-3.44 -28.378,4.67 -31.25,18.414 -2.851,13.845 6.924,28.334 22.038,32.039 15.223,3.724 29.458,-5.025 31.65,-19.133 2.161,-13.988 -7.93,-27.855 -22.438,-31.32 M 600.576,31.104 c -1.516,-3.548 -3.271,-6.87 -5.119,-9.53 -5.256,-7.537 -9.822,-6.41 -10.041,2.539 -0.25,9.043 4.487,21.965 10.431,28.854 1.744,2.025 3.347,3.346 4.729,3.985 z M 495.685,148.283 c -10.093,-4.306 -20.401,2.024 -22.91,14.129 -2.542,12.195 4.234,25.252 15.007,29.197 10.714,3.897 20.797,-2.519 22.645,-14.339 1.806,-11.721 -4.739,-24.688 -14.742,-28.987 M 506.544,-0.158 c -0.035,0.156 -0.069,0.313 -0.103,0.472 -2.348,11.342 2.491,25.129 10.6,30.913 8.053,5.726 15.746,1.765 17.41,-8.944 1.102,-7.109 -0.527,-15.657 -3.936,-22.441 z m 8.489,42.414 c -8.308,-5.61 -17.154,-0.744 -19.554,10.795 -2.4,11.607 3.087,25.047 12.091,30.107 8.934,4.996 17.407,0.153 19.14,-10.902 1.692,-10.971 -3.439,-24.43 -11.677,-30 m -9.532,52.25 c -9.207,-4.895 -18.76,0.754 -21.235,12.558 -2.458,11.891 3.659,25.092 13.556,29.534 9.818,4.394 19.099,-1.284 20.884,-12.709 1.76,-11.332 -4.09,-24.504 -13.205,-29.383"
           style="fill:url(#radialGradient2001);fill-opacity:1;fill-rule:nonzero;stroke:none"
           id="path1436"
           inkscape:connector-curvature="0" /></g></g></g></svg>