<?xml version="1.0" standalone="no"?>
<!DOCTYPE svg PUBLIC "-//W3C//DTD SVG 20010904//EN"
 "http://www.w3.org/TR/2001/REC-SVG-20010904/DTD/svg10.dtd">
<svg version="1.0" xmlns="http://www.w3.org/2000/svg"
 width="512.000000pt" height="512.000000pt" viewBox="0 0 512.000000 512.000000"
 preserveAspectRatio="xMidYMid meet">

<g transform="translate(0.000000,512.000000) scale(0.100000,-0.100000)"
fill="#000000" stroke="none">
<path d="M2380 5090 c-544 -75 -1155 -493 -1505 -1030 -93 -141 -126 -209
-114 -232 5 -10 21 -18 34 -18 20 0 33 16 76 93 305 543 846 955 1429 1089
126 29 364 31 488 4 455 -98 792 -403 899 -815 30 -118 41 -306 24 -434 -37
-280 -175 -535 -374 -692 -95 -76 -249 -155 -357 -185 -73 -20 -315 -58 -510
-80 -297 -33 -550 -119 -695 -237 -80 -65 -157 -167 -153 -202 5 -39 50 -42
75 -4 39 59 170 179 229 211 34 17 65 32 68 32 15 0 3 -43 -31 -111 -53 -108
-113 -161 -269 -241 -121 -62 -543 -248 -563 -248 -14 0 -58 118 -75 203 -9
42 -16 125 -16 185 0 180 36 331 122 514 42 89 49 110 38 123 -26 31 -57 18
-88 -37 -113 -200 -175 -487 -152 -700 10 -88 48 -231 84 -309 5 -12 -17 -27
-100 -68 -203 -101 -229 -150 -229 -431 0 -96 4 -231 8 -300 9 -144 6 -145
-63 -10 -207 411 -223 1119 -38 1760 73 257 198 546 322 750 193 317 472 599
761 770 50 30 100 60 113 67 27 16 26 50 -1 67 -14 9 -29 5 -75 -19 -309 -161
-634 -472 -846 -810 -81 -128 -185 -337 -249 -500 -157 -399 -230 -787 -230
-1220 0 -444 79 -776 245 -1021 l55 -82 -43 -213 c-24 -118 -68 -313 -98 -434
-56 -227 -58 -255 -16 -255 11 0 26 10 34 23 25 40 161 623 201 867 15 89 16
130 9 265 -13 230 -11 442 4 493 28 93 88 129 514 311 418 177 580 266 646
349 41 52 86 145 112 230 l22 72 51 15 c82 24 233 53 342 65 262 27 494 72
610 116 8 4 14 -22 19 -82 3 -47 13 -118 22 -158 17 -77 80 -216 116 -256 83
-91 239 -176 648 -350 302 -129 422 -187 460 -222 12 -12 32 -42 44 -67 20
-43 21 -58 17 -256 -10 -472 -9 -479 37 -705 57 -276 151 -660 168 -687 18
-28 50 -30 64 -4 8 15 -4 75 -49 260 -33 131 -79 331 -103 443 l-42 203 4 185
c2 102 4 262 4 355 0 154 -2 176 -24 230 -43 112 -106 151 -570 350 -399 171
-537 245 -598 323 -66 83 -105 211 -118 383 l-6 96 53 30 c259 147 449 410
520 723 26 112 36 340 20 450 -74 500 -452 891 -969 1000 -111 24 -340 34
-442 20z"/>
<path d="M2056 4687 c-47 -14 -66 -39 -50 -64 16 -25 34 -26 98 -8 58 17 79
43 56 70 -15 18 -50 18 -104 2z"/>
<path d="M3406 3672 c-9 -15 -56 -149 -56 -160 0 -20 38 -34 59 -22 25 13 63
114 59 154 -2 25 -8 32 -30 34 -14 2 -29 -1 -32 -6z"/>
<path d="M1233 3491 c-178 -140 -367 -424 -463 -697 -64 -182 -111 -514 -77
-543 19 -15 47 -11 57 9 5 8 13 72 19 141 33 371 195 713 464 981 89 89 104
118 68 138 -16 8 -28 3 -68 -29z"/>
<path d="M3195 3330 c-195 -201 -480 -303 -1157 -415 -172 -28 -220 -40 -284
-69 -220 -102 -368 -282 -395 -481 -10 -76 -10 -80 11 -97 37 -30 55 -10 67
76 25 176 139 322 325 416 85 42 102 47 368 90 492 81 807 181 995 315 33 24
89 73 125 109 54 55 63 69 54 84 -22 35 -56 26 -109 -28z"/>
<path d="M703 2113 c-25 -9 -9 -197 18 -214 19 -12 22 -11 43 4 15 11 17 23
10 101 -8 103 -25 128 -71 109z"/>
<path d="M3297 2026 c-8 -9 -16 -46 -20 -93 -8 -105 -43 -306 -74 -423 -27
-106 -86 -238 -110 -247 -23 -9 -97 33 -158 89 -65 59 -121 162 -141 260 -17
79 -27 98 -54 98 -37 0 -43 -24 -26 -107 31 -155 133 -311 245 -374 23 -12 41
-25 41 -29 0 -3 -25 -30 -55 -60 -31 -30 -70 -77 -87 -103 l-31 -48 -26 25
c-38 36 -93 56 -155 56 l-54 0 -26 66 c-40 98 -56 179 -56 278 0 149 52 292
144 392 l45 49 1 -35 c0 -40 15 -60 42 -60 28 0 36 28 40 135 3 97 2 100 -19
103 -52 8 -199 -151 -264 -284 -54 -111 -72 -203 -66 -329 5 -99 39 -241 73
-306 15 -30 14 -30 -30 -73 -28 -28 -51 -62 -63 -95 -12 -36 -23 -51 -36 -51
-29 0 -57 -19 -57 -38 0 -26 20 -42 51 -42 23 0 29 -7 48 -59 70 -193 268
-314 486 -297 98 7 223 37 298 70 30 13 57 23 59 21 2 -2 41 -9 87 -15 149
-20 311 12 426 85 186 118 310 364 345 685 12 110 7 130 -34 130 -16 0 -31
-19 -65 -87 -52 -101 -141 -198 -213 -231 -87 -40 -184 -37 -303 8 l-26 10 20
37 c53 103 250 336 382 454 57 51 69 67 67 88 -3 22 -8 26 -41 29 -72 6 -247
-66 -382 -157 -32 -22 -60 -39 -61 -38 -1 1 -9 54 -18 118 -20 146 -79 389
-97 400 -20 13 -36 11 -52 -5z m53 -321 c6 -30 15 -99 19 -155 13 -163 42
-175 190 -76 53 35 120 76 150 91 l53 26 -99 -108 c-122 -135 -195 -231 -231
-304 l-27 -55 -115 0 c-109 1 -118 -1 -163 -27 -41 -24 -48 -33 -45 -55 4 -36
35 -40 91 -13 74 36 134 29 397 -44 70 -19 142 -19 211 1 70 21 111 46 183
114 l59 55 -7 -40 c-24 -132 -98 -283 -183 -375 -111 -120 -217 -164 -393
-164 -127 0 -184 15 -295 80 -152 87 -156 89 -228 90 l-68 1 -28 44 c-15 24
-44 58 -64 76 -76 67 -187 51 -187 -27 0 -41 32 -58 60 -30 11 11 26 20 34 20
29 0 80 -56 108 -118 l29 -64 37 8 c91 19 132 12 220 -41 45 -27 82 -53 82
-56 0 -10 -106 -37 -191 -50 -237 -35 -453 108 -467 311 -3 45 0 61 20 90 36
53 83 80 140 80 61 0 92 -16 145 -75 36 -40 44 -45 62 -36 11 6 30 31 42 56
37 74 109 156 192 219 43 32 90 77 105 100 39 61 97 240 124 381 12 69 24 125
25 125 1 0 7 -25 13 -55z"/>
<path d="M3047 873 c-14 -13 -6 -53 12 -63 11 -5 37 -10 58 -10 57 0 108 -16
218 -71 120 -59 188 -74 262 -58 63 13 82 36 55 69 -16 19 -21 20 -69 10 -64
-14 -106 -4 -223 55 -47 23 -110 50 -139 59 -55 16 -162 22 -174 9z"/>
<path d="M2581 1446 c-27 -32 19 -184 76 -255 15 -19 25 -23 46 -17 36 9 35
37 -3 97 -19 29 -36 73 -43 116 -12 61 -16 68 -38 71 -14 2 -31 -4 -38 -12z"/>
<path d="M1356 388 c-8 -13 -17 -39 -21 -58 -4 -19 -25 -90 -47 -157 -34 -101
-39 -125 -28 -138 16 -19 44 -19 60 0 7 8 25 51 40 96 l28 81 22 -73 c26 -89
44 -119 70 -119 43 0 42 30 -7 196 -25 88 -53 167 -61 177 -20 23 -39 22 -56
-5z"/>
<path d="M3816 388 c-18 -29 -96 -298 -96 -331 0 -27 22 -41 51 -32 17 6 22
19 66 169 4 13 16 -9 38 -69 33 -87 47 -107 74 -102 36 6 35 33 -7 158 -22 68
-44 141 -48 162 -11 64 -51 87 -78 45z"/>
</g>
</svg>
